<svg xmlns="http://www.w3.org/2000/svg" width="48.003" height="48.002"><g fill="#1a171b"><path d="m21.7 18.99-6.792-6.79.743-.744a.724.724 0 0 0 .066-.951L11.867 5.4a.723.723 0 0 0-.53-.287.739.739 0 0 0-.564.211L7 9.1a.724.724 0 0 0 .076 1.093l5.106 3.85a.728.728 0 0 0 .952-.067l.744-.744 6.789 6.789-6.633 6.635a6.519 6.519 0 0 0-5.8 1.82A6.6 6.6 0 0 0 6.7 35.335a.726.726 0 0 0 .524.465.718.718 0 0 0 .674-.2l4.088-4.088a4.107 4.107 0 0 1 2.5 2.5L10.4 38.107a.727.727 0 0 0 .27 1.2 6.527 6.527 0 0 0 2.207.383 6.6 6.6 0 0 0 4.657-1.918 6.525 6.525 0 0 0 1.819-5.8l6.634-6.633 2.548 2.547-1.064 1.064a1.7 1.7 0 0 0 0 2.4l7.029 7.025a3.929 3.929 0 0 0 5.555-5.557L33.03 25.8a1.7 1.7 0 0 0-2.4 0l-1.063 1.064-2.547-2.554 6.629-6.629a6.533 6.533 0 0 0 5.115-1.234l.063-.045a6.828 6.828 0 0 0 .619-.541l.019-.02c.15-.148.287-.307.444-.494A6.609 6.609 0 0 0 41 8.978a.656.656 0 0 0-.087-.166A6.517 6.517 0 0 0 37.207 5.1a.832.832 0 0 0-.178-.092 6.625 6.625 0 0 0-6.4 1.117c-.16.131-.317.27-.466.418l-.01.01-.01.01a6.774 6.774 0 0 0-.585.682 6.531 6.531 0 0 0-1.234 5.113zm-9.146-6.49L8.619 9.531l2.59-2.59 2.966 3.936zm26.472 21.35a2.474 2.474 0 0 1-3.5 3.5l-.544-.543 3.5-3.5zm-7.366-7.024a.239.239 0 0 1 .172-.072.243.243 0 0 1 .171.072l5.451 5.449-3.5 3.5-5.454-5.451a.237.237 0 0 1-.071-.17.243.243 0 0 1 .071-.172zm-2.026-13.717a.726.726 0 0 0 .192-.686 5.132 5.132 0 0 1 .927-4.346c.131-.166.268-.33.355-.426a1.027 1.027 0 0 0 .078-.068.345.345 0 0 0 .027-.029 5.49 5.49 0 0 1 .369-.326 5.146 5.146 0 0 1 4.782-.908.758.758 0 0 0 .156.078 5.068 5.068 0 0 1 3.091 3.09.658.658 0 0 0 .073.148 5.158 5.158 0 0 1-.924 4.816c-.1.119-.2.238-.313.35a.207.207 0 0 0-.021.021.26.26 0 0 0-.028.029 5.121 5.121 0 0 1-.483.414l-.027.021a5.1 5.1 0 0 1-4.3.893.716.716 0 0 0-.686.193l-14.853 14.85a.73.73 0 0 0-.192.688 5.08 5.08 0 0 1-1.348 4.83 5.182 5.182 0 0 1-4.148 1.467l3.466-3.467a.725.725 0 0 0 .191-.689 5.563 5.563 0 0 0-4.061-4.061.72.72 0 0 0-.69.191L7.8 33.647A5.141 5.141 0 0 1 9.267 29.5a5.087 5.087 0 0 1 4.833-1.349.729.729 0 0 0 .687-.193z"/><path d="M34.721 14.291a3.151 3.151 0 1 0-3.151-3.152 3.155 3.155 0 0 0 3.151 3.152zm0-4.849a1.7 1.7 0 1 1-1.7 1.7 1.7 1.7 0 0 1 1.7-1.7z"/><path d="M47.273 0h-19.2A4.8 4.8 0 0 0 24 2.26 4.805 4.805 0 0 0 19.927 0H.729A.729.729 0 0 0 0 .727v42.479a.729.729 0 0 0 .728.727h19.2a3.347 3.347 0 0 1 3.347 3.34.728.728 0 1 0 1.456 0 3.348 3.348 0 0 1 3.348-3.34h19.2a.728.728 0 0 0 .721-.727V.727A.73.73 0 0 0 47.273 0zm-.726 42.477H28.076a4.788 4.788 0 0 0-3.348 1.363V31.3a.728.728 0 1 0-1.456 0v12.54a4.786 4.786 0 0 0-3.347-1.363H1.454V1.456h18.471A3.347 3.347 0 0 1 23.272 4.8v7.971a.728.728 0 0 0 1.456 0V4.8a3.348 3.348 0 0 1 3.348-3.34h18.471z"/><path d="M20.122 46.545H.728a.728.728 0 1 0 0 1.455h19.394a.728.728 0 1 0 0-1.456zM47.273 46.545H27.879a.728.728 0 1 0 0 1.456h19.394a.728.728 0 1 0 0-1.456z"/></g></svg>