<?xml version="1.0" encoding="utf-8"?>
<!-- Generator: Adobe Illustrator 24.1.1, SVG Export Plug-In . SVG Version: 6.00 Build 0)  -->
<svg version="1.1" id="Layer_1" xmlns="http://www.w3.org/2000/svg" xmlns:xlink="http://www.w3.org/1999/xlink" x="0px" y="0px"
	 viewBox="0 0 512 512" style="enable-background:new 0 0 512 512;" xml:space="preserve">
<g>
	<path d="M256.4,139.4c-53.3,0-98.2,36.6-111.9,85.7c-11.9-26.3-38.3-44.9-68.8-44.9C34,180.4,0.2,214.3,0,256
		c0.2,41.7,34,75.6,75.8,75.8c30.6,0,56.8-18.7,68.8-45c13.7,49.2,58.5,85.8,111.9,85.8c53,0,97.6-36.2,111.6-84.9
		c12.1,25.8,38,44.2,68.2,44.2c41.8-0.3,75.7-34.1,75.8-75.8c-0.2-41.7-34-75.6-75.8-75.8c-30.2,0-56.1,18.4-68.2,44.2
		C354,175.6,309.4,139.4,256.4,139.4z M256.4,183.9c40,0,72,32,72,72.1s-32,72.1-72,72.1c-39.9,0.2-72.3-32.3-72.1-72.1
		C184.4,215.9,216.4,183.9,256.4,183.9z M75.8,224.7c17.6,0,31.3,13.8,31.3,31.3s-13.8,31.3-31.3,31.3c-17.3,0.2-31.5-14-31.2-31.3
		C44.5,238.4,58.3,224.7,75.8,224.7z M436.2,224.7c17.6,0,31.4,13.8,31.4,31.3s-13.8,31.3-31.4,31.3c-17.3,0.2-31.4-14-31.2-31.3
		C404.9,238.4,418.7,224.7,436.2,224.7z"/>
</g>
</svg>
