<svg xmlns="http://www.w3.org/2000/svg" viewBox="0 0 256 256"><defs><style>.cls-1{fill:#1d384d}</style></defs><g id="icons_without_caption" data-name="icons without caption"><g id="SECURE"><path class="cls-1" d="m128 195.56-17.56-11.35a71 71 0 0 1-32.57-59.84V76.71L128 58l50.13 18.73v47.66a71 71 0 0 1-32.57 59.84zM81.87 79.49v44.88a67 67 0 0 0 30.74 56.48l15.39 9.94 15.38-9.95a67 67 0 0 0 30.74-56.48V79.49L128 62.25z"/><path class="cls-1" d="M128 219.37 99.59 201a90.91 90.91 0 0 1-41.71-76.63V62.84L128 36.63l70.13 26.21v61.53A90.91 90.91 0 0 1 156.41 201zM61.87 65.61v58.76a86.92 86.92 0 0 0 39.88 73.27l26.24 17 26.24-17a86.92 86.92 0 0 0 39.88-73.27V65.61L128 40.9z"/><path class="cls-1" d="m123.22 139.64-14.8-15.7 2.9-2.74 12.03 12.74 27.84-27.03 2.79 2.87-30.76 29.86z"/></g></g></svg>