<svg data-name="Layer 1" xmlns="http://www.w3.org/2000/svg" viewBox="0 0 128 128"><path d="M110.242 30.142a1.751 1.751 0 0 0-1.233-1.487 403.632 403.632 0 0 1-44.288-16.1 1.752 1.752 0 0 0-1.442 0 403.606 403.606 0 0 1-44.289 16.1 1.748 1.748 0 0 0-1.232 1.487 113.456 113.456 0 0 0 2.912 35.942c6.257 25.128 21.05 42.221 42.779 49.431a1.75 1.75 0 0 0 1.1 0c21.729-7.21 36.521-24.3 42.778-49.431a113.474 113.474 0 0 0 2.915-35.942zm-6.334 35.193c-6 23.978-19.422 39.678-39.908 46.672-20.487-6.994-33.912-22.694-39.909-46.672a113.51 113.51 0 0 1-2.949-33.676A416.349 416.349 0 0 0 64 16.061a416.488 416.488 0 0 0 42.857 15.6 113.51 113.51 0 0 1-2.949 33.674z"/><path d="M101.34 34.655c-17.393-5.5-30.432-10.755-36.656-13.4a1.747 1.747 0 0 0-1.368 0c-6.223 2.641-19.261 7.9-36.655 13.4a1.752 1.752 0 0 0-1.222 1.632 107.971 107.971 0 0 0 3.1 28.292c5.43 21.36 17.149 35.631 34.832 42.415a1.753 1.753 0 0 0 1.254 0c17.683-6.784 29.4-21.055 34.832-42.415a108.034 108.034 0 0 0 3.1-28.292 1.753 1.753 0 0 0-1.217-1.632zm-5.274 29.063C91 83.656 80.211 97.031 64 103.481 47.789 97.03 37 83.655 31.934 63.717A105.7 105.7 0 0 1 28.92 37.61C45.245 32.4 57.633 27.451 64 24.77c6.367 2.681 18.757 7.627 35.08 12.84a105.729 105.729 0 0 1-3.014 26.108z"/><path d="M83.5 43.321h-.07a6.7 6.7 0 0 0-4.752 2.028L58.815 65.633l-7.484-7.668a6.706 6.706 0 0 0-4.749-2.034H46.5A6.75 6.75 0 0 0 41.669 67.4L53.978 80a6.781 6.781 0 0 0 4.822 2.038 6.789 6.789 0 0 0 4.823-2.027L88.322 54.8A6.751 6.751 0 0 0 83.5 43.321zm2.32 9.025L61.13 77.563a3.271 3.271 0 0 1-2.322.975v1.75-1.75a3.267 3.267 0 0 1-2.324-.98l-12.31-12.609A3.25 3.25 0 0 1 46.5 59.43h.04a3.226 3.226 0 0 1 2.287.98l8.735 8.948a1.749 1.749 0 0 0 1.251.528 1.751 1.751 0 0 0 1.251-.526L81.179 47.8a3.229 3.229 0 0 1 2.288-.976h.033a3.251 3.251 0 0 1 2.321 5.525z"/></svg>