<?xml version="1.0" encoding="UTF-8"?> <!-- Generator: Adobe Illustrator 25.2.1, SVG Export Plug-In . SVG Version: 6.00 Build 0) --> <svg xmlns="http://www.w3.org/2000/svg" xmlns:xlink="http://www.w3.org/1999/xlink" version="1.1" id="Layer_1" x="0px" y="0px" viewBox="0 0 120 135" style="enable-background:new 0 0 120 135;" xml:space="preserve"> <path d="M110.5,29.2L68,4.6c-5-2.8-11-2.8-16,0L9.6,29.2c-4.9,2.9-8,8.1-8,13.8v49c0,5.7,3,11,8,13.8L52,130.4 c4.9,2.9,11.1,2.9,16,0l42.5-24.5c4.9-2.9,8-8.1,8-13.8V43C118.5,37.3,115.5,32,110.5,29.2z M39.2,83.4L68,99.5c0.6,0.3,1.3,0.3,2,0 l10.7-6c0.4-0.2,0.6-0.8,0.3-1.2c-0.1-0.1-0.2-0.2-0.3-0.3l-12.9-7.2c-1.2-0.7-1.7-2.2-1-3.4c0.2-0.4,0.6-0.7,1-1l13.2-7.3 c0.2-0.1,0.3-0.3,0.3-0.4l0-0.1c0-2.6,2.7-4.8,5.9-4.8c3.3,0,5.9,2.1,5.9,4.8c0,1.6-1,3-2.5,3.9l-0.2,0.1c-0.9,0.5-2,0.8-3.2,0.8 c-0.5,0-1.1-0.1-1.9-0.3c-0.5-0.1-1-0.1-1.5,0.2l-8.3,4.7c-0.4,0.2-0.6,0.8-0.3,1.2c0.1,0.1,0.2,0.2,0.3,0.3l12.9,7.2 c1.2,0.7,1.7,2.2,1,3.4c-0.2,0.4-0.6,0.7-1,1l-17.6,9.8c-1.1,0.6-2.5,0.6-3.6,0L36,87.3c-0.4-0.2-1-0.3-1.4-0.2 c-0.7,0.2-1.3,0.2-1.7,0.2c-3.3,0-5.9-2.1-5.9-4.7c0-2.6,2.7-4.8,5.9-4.8c0.5,0,1.1,0.1,1.8,0.3c0.5,0.1,1,0,1.5-0.2L80.8,53 c0.2-0.1,0.3-0.3,0.4-0.5l0-0.1c0-0.3-0.2-0.6-0.5-0.8L52,35.5c-0.6-0.3-1.4-0.3-2,0l-10.7,6c-0.4,0.2-0.6,0.8-0.3,1.2 c0.1,0.1,0.2,0.2,0.3,0.3l12.9,7.2c1.2,0.7,1.7,2.2,1,3.4c-0.2,0.4-0.6,0.7-1,1l-13.2,7.3c-0.2,0.1-0.3,0.3-0.3,0.4l0,0.1 c0,2.6-2.7,4.7-5.9,4.7c-1.5,0-2.9-0.5-4-1.2l-0.1-0.1c-1.1-0.9-1.8-2.1-1.8-3.4c0-2.6,2.7-4.7,5.9-4.7c0.5,0,1.1,0.1,1.9,0.3 c0.5,0.1,1,0.1,1.5-0.2l8.4-4.7c0.4-0.2,0.6-0.7,0.3-1.2c-0.1-0.1-0.2-0.2-0.3-0.3l-12.9-7.2c-1.2-0.7-1.7-2.2-1-3.4 c0.2-0.4,0.6-0.7,1-1l17.6-9.8c1.1-0.6,2.5-0.6,3.6,0L84,47.7c0.4,0.2,0.9,0.3,1.4,0.2c0.7-0.2,1.2-0.2,1.7-0.2 c3.3,0,5.9,2.1,5.9,4.8c0,2.6-2.7,4.8-5.9,4.8c-0.5,0-1.1-0.1-1.8-0.3c-0.5-0.1-1-0.1-1.5,0.2L39.2,82c-0.2,0.1-0.4,0.3-0.4,0.5 l0,0.1C38.8,82.9,39,83.2,39.2,83.4z"></path> </svg> 